<svg width="30" height="27" viewBox="0 0 30 27" fill="none" xmlns="http://www.w3.org/2000/svg">
<path d="M7.3191 0.99185C10.5828 0.175728 12.7257 1.19685 14.0304 2.50161C14.1726 2.64373 14.304 2.78836 14.4253 2.93321C14.5678 3.10333 14.7783 3.20161 15.0003 3.20161C15.2222 3.20161 15.4327 3.10333 15.5752 2.9332C15.6965 2.78835 15.8279 2.64372 15.97 2.50161C17.2749 1.19681 19.4179 0.175752 22.6822 0.99184C25.9428 1.80698 28.4035 4.25861 29.2248 7.33872C30.0515 10.4395 29.1967 14.0833 26.0302 17.2498C22.5267 20.7533 19.5361 23.7454 17.654 25.6287C16.1897 27.094 13.8186 27.0946 12.3536 25.6298L3.97225 17.2498C0.804482 14.0826 -0.0503541 10.4387 0.776714 7.33803C1.59825 4.2581 4.05941 1.80698 7.3191 0.99185Z" fill="#FF3D9A"/>
</svg>
