<svg width="20" height="16" viewBox="0 0 20 16" fill="none" xmlns="http://www.w3.org/2000/svg">
<path d="M0.978188 0.783608C1.51148 0.296857 2.22107 0 3 0H17C17.7789 0 18.4885 0.296857 19.0218 0.783608L10 6.79815L0.978188 0.783608Z" fill="#1E1F27"/>
<path d="M0.0325025 2.55685C0.0110917 2.70146 0 2.84944 0 3V13C0 14.6569 1.34315 16 3 16H17C18.6569 16 20 14.6569 20 13V3C20 2.84944 19.9889 2.70146 19.9675 2.55685L10.5547 8.83205C10.2188 9.05598 9.7812 9.05598 9.4453 8.83205L0.0325025 2.55685Z" fill="#1E1F27"/>
</svg>
