<svg width="28" height="28" viewBox="0 0 28 28" fill="none" xmlns="http://www.w3.org/2000/svg">
<path d="M14.0001 18C16.2092 18 18.0001 16.2091 18.0001 14C18.0001 11.7908 16.2092 9.99996 14.0001 9.99996C11.7909 9.99996 10.0001 11.7908 10.0001 14C10.0001 16.2091 11.7909 18 14.0001 18Z" fill="#1E1F27"/>
<path fill-rule="evenodd" clip-rule="evenodd" d="M6.00008 0.666626C3.05456 0.666626 0.666748 3.05444 0.666748 5.99996V22C0.666748 24.9455 3.05456 27.3333 6.00008 27.3333H22.0001C24.9456 27.3333 27.3334 24.9455 27.3334 22V5.99996C27.3334 3.05444 24.9456 0.666626 22.0001 0.666626H6.00008ZM14.0001 20.6666C17.682 20.6666 20.6667 17.6819 20.6667 14C20.6667 10.3181 17.682 7.33329 14.0001 7.33329C10.3182 7.33329 7.33342 10.3181 7.33342 14C7.33342 17.6819 10.3182 20.6666 14.0001 20.6666ZM22.0001 5.99996C22.0001 6.73634 21.4031 7.33329 20.6667 7.33329C19.9304 7.33329 19.3334 6.73634 19.3334 5.99996C19.3334 5.26358 19.9304 4.66663 20.6667 4.66663C21.4031 4.66663 22.0001 5.26358 22.0001 5.99996Z" fill="#1E1F27"/>
</svg>
