<svg width="28" height="28" viewBox="0 0 28 28" fill="none" xmlns="http://www.w3.org/2000/svg">
<path d="M23.3334 4.49996C20.8334 1.99996 17.6667 0.666626 14.0001 0.666626C6.83341 0.666626 0.833415 6.66663 0.833415 13.8333C0.833415 16.1666 1.50008 18.5 2.66675 20.5L0.666748 27.3333L7.66675 25.5C9.66675 26.5 11.8334 27.1666 14.0001 27.1666C21.3334 27.1666 27.1667 21.1666 27.1667 14C27.3334 10.3333 25.8334 6.99996 23.3334 4.49996ZM20.5001 18.6666C20.1667 19.5 18.8334 20.1666 18.3334 20.1666C17.8334 20.3333 16.1667 20.1666 14.3334 19.3333C11.0001 17.8333 8.83342 14.5 8.66675 14.3333C8.50008 14.1666 7.33342 12.5 7.33342 11C7.33342 9.49996 8.16675 8.49996 8.50008 8.16663C9.16675 7.49996 10.5001 7.66663 10.8334 8.33329C11.0001 8.99996 11.6667 10.6666 11.8334 10.8333C12.0001 11 12.0001 11.6666 11.5001 12C11.3334 12 10.5001 12.6666 10.8334 13.1666C11.0001 13.5 11.6667 14.5 12.6667 15.5C14.0001 16.6666 15.0001 17 15.3334 17.1666C15.6667 17.3333 15.8334 17.3333 16.0001 17C16.1667 16.8333 16.8334 16 17.0001 15.6666C17.1667 15.3333 17.5001 15.3333 17.6667 15.5C17.8334 15.6666 19.6667 16.3333 20.0001 16.5C20.3334 16.8333 20.6667 16.8333 20.6667 17C20.8334 17.1666 20.8334 17.8333 20.5001 18.6666Z" fill="#1E1F27"/>
</svg>
