<svg width="26" height="22" viewBox="0 0 26 22" fill="none" xmlns="http://www.w3.org/2000/svg">
<path d="M25.5778 4.82222C25.6568 4.7565 25.7161 4.67014 25.749 4.57273C25.7819 4.47533 25.7871 4.37071 25.7641 4.27051C25.7411 4.17032 25.6907 4.07848 25.6185 4.00522C25.5464 3.93196 25.4554 3.88015 25.3555 3.85555L24.4778 3.63333C24.398 3.61335 24.3236 3.57589 24.26 3.52366C24.1964 3.47143 24.1453 3.40573 24.1102 3.33131C24.0751 3.25689 24.057 3.1756 24.0571 3.09333C24.0573 3.01105 24.0757 2.92984 24.1111 2.85555L24.6 1.86666C24.6462 1.77084 24.6639 1.66377 24.651 1.55818C24.6381 1.45259 24.5952 1.35292 24.5273 1.27101C24.4594 1.1891 24.3695 1.12839 24.2681 1.09611C24.1668 1.06382 24.0583 1.06132 23.9555 1.08889L21.7333 1.71111C21.6505 1.73526 21.5632 1.7398 21.4784 1.72437C21.3935 1.70894 21.3134 1.67397 21.2444 1.62222C20.2828 0.900985 19.1132 0.511108 17.9111 0.511108C16.4377 0.511108 15.0246 1.09642 13.9827 2.13829C12.9409 3.18016 12.3555 4.59324 12.3555 6.06666V6.46666C12.356 6.53491 12.3314 6.60094 12.2863 6.65218C12.2412 6.70341 12.1789 6.73625 12.1111 6.74444C8.98888 7.11111 5.99999 5.52222 2.77777 1.81111C2.70777 1.73391 2.61784 1.67751 2.51787 1.6481C2.41789 1.6187 2.31175 1.61743 2.2111 1.64444C2.12043 1.68612 2.04266 1.75145 1.98596 1.83356C1.92926 1.91568 1.89573 2.01155 1.88888 2.11111C1.44383 3.93927 1.62377 5.8638 2.39999 7.57778C2.42296 7.62324 2.43298 7.67414 2.42897 7.72491C2.42496 7.77568 2.40707 7.82438 2.37725 7.86567C2.34743 7.90696 2.30683 7.93926 2.25989 7.95903C2.21295 7.9788 2.16148 7.98528 2.1111 7.97777L0.866658 7.73333C0.778282 7.71912 0.687781 7.72648 0.60286 7.75477C0.517939 7.78307 0.441112 7.83146 0.378919 7.89583C0.316726 7.96021 0.271009 8.03866 0.245659 8.12451C0.220309 8.21035 0.216077 8.30105 0.233324 8.38889C0.329256 9.2416 0.61574 10.0618 1.07157 10.7888C1.5274 11.5159 2.1409 12.1311 2.86666 12.5889C2.91362 12.6116 2.95323 12.6471 2.98094 12.6914C3.00866 12.7356 3.02336 12.7867 3.02336 12.8389C3.02336 12.8911 3.00866 12.9422 2.98094 12.9864C2.95323 13.0306 2.91362 13.0661 2.86666 13.0889L2.27777 13.3222C2.20625 13.3509 2.14148 13.3941 2.08757 13.4492C2.03366 13.5042 1.99179 13.5699 1.96463 13.642C1.93746 13.7141 1.92558 13.791 1.92976 13.868C1.93393 13.9449 1.95407 14.0201 1.98888 14.0889C2.31454 14.8015 2.80816 15.4244 3.42743 15.9044C4.0467 16.3843 4.77313 16.7069 5.54444 16.8444C5.59806 16.8639 5.64439 16.8994 5.67713 16.9461C5.70988 16.9928 5.72744 17.0485 5.72744 17.1056C5.72744 17.1626 5.70988 17.2183 5.67713 17.265C5.64439 17.3117 5.59806 17.3472 5.54444 17.3667C4.03373 17.9915 2.41251 18.3051 0.777769 18.2889C0.630426 18.2594 0.477412 18.2897 0.352388 18.373C0.227364 18.4564 0.140571 18.586 0.111102 18.7333C0.0816336 18.8807 0.111904 19.0337 0.195253 19.1587C0.278603 19.2837 0.408204 19.3705 0.555547 19.4C3.38615 20.7425 6.46797 21.4732 9.59999 21.5444C12.3549 21.5865 15.0609 20.8133 17.3778 19.3222C19.2836 18.05 20.845 16.3261 21.9229 14.3041C23.0008 12.282 23.5617 10.0247 23.5555 7.73333V6.76666C23.5562 6.68598 23.5745 6.60642 23.609 6.53351C23.6435 6.46059 23.6936 6.39607 23.7555 6.34444L25.5778 4.82222Z" fill="#1E1F27"/>
</svg>
